    <svg
      xmlns="http://www.w3.org/2000/svg"
      width="200"
      height="100"
      viewBox="0 0 135 52"
      fill="none"
    >
      <g clip-path="url(#clip0)">
        <path
          d="M28.1163 2.3625C25.3731 0.891347 22.4005 0.155769 19.1986 0.155769C16.5591 0.155769 14.0798 0.64471 11.7606 1.6226C9.3548 2.68702 7.31249 4.05 5.63365 5.71154C3.79038 7.65 2.4274 9.69232 1.54471 11.8385C0.566822 14.1317 0.0778809 16.6111 0.0778809 19.2765C0.0778809 21.9505 0.566822 24.4298 1.54471 26.7144C2.4274 28.8606 3.79038 30.9029 5.63365 32.8414C7.33846 34.5289 9.38077 35.8919 11.7606 36.9303C14.2096 37.9082 16.6889 38.3971 19.1986 38.3971C22.3226 38.3971 25.2736 37.6702 28.0514 36.2164C30.8553 34.7366 33.1615 32.6899 34.9702 30.0765L26.6495 24.3779C25.8187 25.6241 24.737 26.5933 23.4043 27.2856C22.0803 27.9866 20.6784 28.337 19.1986 28.337C16.6889 28.337 14.5471 27.4457 12.7731 25.663C11.0163 23.8976 10.138 21.7688 10.138 19.2765C10.138 16.7668 11.0163 14.6337 12.7731 12.8769C14.5471 11.1029 16.6889 10.2159 19.1986 10.2159C20.6611 10.2159 22.0457 10.5534 23.3524 11.2284C24.6678 11.8947 25.7452 12.8337 26.5846 14.0452L34.8404 8.26876C33.0923 5.7851 30.851 3.81635 28.1163 2.3625Z"
          fill="#9553ff"
        />
        <path
          d="M54.1817 0.0908661C51.5163 0.0908661 49.037 0.579807 46.7437 1.55769C44.4851 2.55288 42.4514 3.91587 40.6428 5.64664C38.886 7.46395 37.5231 9.50626 36.5538 11.7736C35.5586 14.2313 35.0611 16.7106 35.0611 19.2115C35.0611 21.7125 35.5586 24.1918 36.5538 26.6495C37.5317 28.9255 38.8947 30.9678 40.6428 32.7765C42.4514 34.5072 44.4851 35.8702 46.7437 36.8654C49.236 37.8433 51.7154 38.3322 54.1817 38.3322C56.6567 38.3322 59.1447 37.8433 61.6456 36.8654C64.0254 35.8269 66.0591 34.464 67.7466 32.7765C69.4774 30.9591 70.8403 28.9168 71.8355 26.6495C72.8307 24.3476 73.3283 21.8683 73.3283 19.2115C73.3283 16.5548 72.8307 14.0755 71.8355 11.7736C70.7884 9.36779 69.4254 7.32548 67.7466 5.64664C65.9293 3.90721 63.8956 2.54423 61.6456 1.55769C59.3351 0.579807 56.8471 0.0908661 54.1817 0.0908661ZM54.1817 10.151C56.6567 10.151 58.7942 11.038 60.5942 12.812C62.3682 14.6034 63.2553 16.7365 63.2553 19.2115C63.2553 21.6779 62.3682 23.8067 60.5942 25.5981C58.8115 27.3721 56.674 28.2591 54.1817 28.2591C51.6981 28.2591 49.5735 27.3721 47.8082 25.5981C46.0168 23.8241 45.1211 21.6952 45.1211 19.2115C45.1211 16.7365 46.0168 14.6034 47.8082 12.812C49.5822 11.038 51.7067 10.151 54.1817 10.151Z"
          fill="#9553ff"
        />
        <path
          d="M100.017 0.480293H95.811C94.0716 0.791832 92.4274 1.25914 90.8784 1.88222C88.1437 2.95529 85.6774 4.52164 83.4793 6.58126C81.4111 8.44184 79.7322 10.7481 78.4428 13.5C77.2486 16.1135 76.6515 18.9303 76.6515 21.9505V38.4491H87.4255V21.9505C87.4255 18.714 88.65 15.9491 91.099 13.6558C93.574 11.3539 96.5466 10.2029 100.017 10.2029V0.480293Z"
          fill="#9553ff"
        />
        <path
          d="M135 0.480293H124.278L115.814 21.7039L106.819 0.480293H95.7592L110.713 34.3082L103.937 51.1443H114.607L135 0.480293Z"
          fill="#9553ff"
        />
      </g>
      <defs>
        <clipPath id="clip0">
          <rect width="135" height="51.1443" fill="white" />
        </clipPath>
      </defs>
    </svg>